<svg width="192" height="192" viewBox="0 0 192 192" fill="none" xmlns="http://www.w3.org/2000/svg">
  <defs>
    <linearGradient id="paint0_linear_icon" x1="32" y1="36" x2="168" y2="168" gradientUnits="userSpaceOnUse">
      <stop stop-color="#22D3EE"/>
      <stop offset="1" stop-color="#2563EB"/>
    </linearGradient>
    <filter id="wallet_glow" x="60" y="50" width="120" height="120" color-interpolation-filters="sRGB">
      <feGaussianBlur stdDeviation="8" result="coloredBlur"/>
      <feMerge>
        <feMergeNode in="coloredBlur"/>
        <feMergeNode in="SourceGraphic"/>
      </feMerge>
    </filter>
  </defs>
  <rect width="192" height="192" rx="48" fill="url(#paint0_linear_icon)"/>
  <g filter="url(#wallet_glow)">
    <path
      d="M118 70h46c6.627 0 12 5.373 12 12v34c0 6.627-5.373 12-12 12h-46c-9.941 0-18-8.059-18-18V88c0-9.941 8.059-18 18-18Z"
      fill="rgba(255,255,255,0.3)"
    />
  </g>
  <path
    d="M114 74h44c5.523 0 10 4.477 10 10v34c0 5.523-4.477 10-10 10h-44c-7.18 0-13-5.82-13-13V87c0-7.18 5.82-13 13-13Z"
    fill="#F8FAFC"
    fill-opacity="0.75"
  />
  <path
    d="M144 96c3.314 0 6 2.686 6 6s-2.686 6-6 6h-12c-3.314 0-6-2.686-6-6s2.686-6 6-6h12Z"
    fill="#1D4ED8"
    fill-opacity="0.9"
  />
  <path
    d="M100 40C68.624 40 43 65.624 43 97s25.624 57 57 57c21.997 0 40.87-12.253 49.553-30.047H122v-15H167.5c-.309 31.803-26.36 57.5-59.25 57.5-33.093 0-60-26.907-60-60s26.907-60 60-60c25.389 0 47.378 16.43 55.387 39.94l-15.233 7.54C143.078 72.91 123.111 60.75 100 60.75 72.49 60.75 50.75 82.49 50.75 110s21.74 49.25 49.25 49.25c20.293 0 37.598-11.69 45.055-28.25H122v-15h46.494C167.322 77.932 136.679 40 100 40Z"
    fill="white"
    fill-opacity="0.95"
  />
</svg>
